<svg xmlns="http://www.w3.org/2000/svg" width="225.953" height="65.731" viewBox="0 0 225.953 65.731"><defs><style>.a{fill:#f05423;}</style></defs><g transform="translate(0.027)"><g transform="translate(-0.027 0)"><path class="a" d="M1028.943,32.666a16.333,16.333,0,1,1,16.333-16.333,16.333,16.333,0,0,1-16.333,16.333" transform="translate(-819.323 0)"/><path class="a" d="M931.393,190.815q2.243-6.158-6.053-6.163h-7.421q-5.583,0-4.837-2.046l.435-1.187q.441-1.216,2.789-1.548.538-.074,3.054-.074h3.222a2.413,2.413,0,0,0,2.352-1.853q.865-2.382-.809-2.382c-1.978,0-3.64.044-4.978.132a20.046,20.046,0,0,0-3.125.393q-5.472,1.168-6.986,5.333l-.452,1.235q-2.29,6.284,7.746,6.284h7.278q3.818,0,3.064,2.071l-.313.857c-.573,1.54-2.239,2.308-5.041,2.308H906.158q-1.655,0-2.506,2.332c-.453,1.254-.13,1.88.977,1.88h15.142q8.864,0,11.241-6.52Z" transform="translate(-731.002 -142.05)"/><path class="a" d="M761.846,175.56h-7.465a16.827,16.827,0,0,0-7.24,1.527,10.19,10.19,0,0,0-5.781,5.808l-3.054,8.4q-1.394,3.829,1.626,5.688a12.352,12.352,0,0,0,6.165,1.4h7.444a16.343,16.343,0,0,0,7-1.38,9.743,9.743,0,0,0,5.518-5.711l3.077-8.45Q771.769,175.56,761.846,175.56Zm2.863,6.952-3.2,8.78c-.37,1.014-1.368,1.785-3,2.306a11.413,11.413,0,0,1-3.537.573h-7.28a10.192,10.192,0,0,1-3.447-.5q-2.05-.763-1.466-2.38l3.054-8.4q.613-1.689,3.209-2.521a12.772,12.772,0,0,1,3.858-.573h7.278q5.512,0,4.53,2.716Z" transform="translate(-597.02 -142.05)"/><path class="a" d="M583.622,194.172H566.774q-6.125,0-5.068-2.9l3.245-8.923q.926-2.552,6.312-2.55H588.68q1.743,0,2.51-2.115t-.968-2.121H572.49q-9.544,0-12.065,6.927l-3.273,9q-1.554,4.26,1.464,5.879,1.718,1.025,6.5,1.023h16.566a2.674,2.674,0,0,0,2.76-1.88c.573-1.556.292-2.332-.821-2.332" transform="translate(-450.373 -142.05)"/><path class="a" d="M408.3,175.155l-7.467.073a16.8,16.8,0,0,0-7.219,1.592,10.2,10.2,0,0,0-5.726,5.862l-2.976,8.431q-1.355,3.842,1.676,5.673a12.319,12.319,0,0,0,6.182,1.336l7.444-.071a16.355,16.355,0,0,0,6.977-1.447,9.75,9.75,0,0,0,5.461-5.764l2.995-8.461Q418.232,175.057,408.3,175.155Zm2.968,7.032-3.2,8.78c-.367,1.014-1.371,1.785-3,2.306a11.452,11.452,0,0,1-3.539.573h-7.272a10.193,10.193,0,0,1-3.447-.5q-2.056-.763-1.466-2.38l3.054-8.4q.613-1.689,3.207-2.521a12.788,12.788,0,0,1,3.859-.573h7.274Q412.269,179.467,411.271,182.186Z" transform="translate(-311.1 -141.721)"/><path class="a" d="M232.079,144.661q1.695-4.671-1.718-6.285c-1.21-.636-3.609-.954-7.183-.954h-12.1l2.689-7.375q.676-1.855-.977-1.855a7.932,7.932,0,0,0-1.985.143,2.56,2.56,0,0,0-1.514,1.718l-10.244,28.125c-.33.9-.242,1.475.269,1.718a5.111,5.111,0,0,0,1.867.168,2.417,2.417,0,0,0,2.336-1.88l6.032-16.566h13.151a15.923,15.923,0,0,1,3.638.334q2,.67,1.233,2.785l-4.9,13.447c-.454,1.254-.134,1.88.97,1.88a6.474,6.474,0,0,0,1.993-.168,2.58,2.58,0,0,0,1.514-1.718Z" transform="translate(-160.895 -103.722)"/><path class="a" d="M28.5,176.67H21.371a19.03,19.03,0,0,0-7.078,1.017,9.342,9.342,0,0,0-5.616,5.761L.169,206.824q-.676,1.853.977,1.855a6.425,6.425,0,0,0,1.972-.168,2.56,2.56,0,0,0,1.527-1.687L7.38,199.3H21.339q9.672,0,12.243-7.072l3.235-8.851Q39.256,176.67,28.5,176.67Zm3.766,6.784-3.22,8.853q-1.025,2.808-6.182,2.81H8.913l4.2-11.544q.973-2.686,6.913-2.689h6.982a19.35,19.35,0,0,1,3.627.216q2.287.544,1.632,2.355Z" transform="translate(0.027 -142.948)"/></g></g></svg>